# AST/ASF file generated using VICON BodyLanguage
# -----------------------------------------------
:version 1.10
:name VICON
:units
  mass 1.0
  length 0.45
  angle deg
:documentation
   .ast/.asf automatically generated from VICON data using
   VICON BodyBuilder and BodyLanguage model FoxedUp or BRILLIANT.MOD
:root
   order TX TY TZ RX RY RZ
   axis XYZ
   position 0 0 0  
   orientation 0 0 0 
:bonedata
  begin
     id 1 
     name lhipjoint
     direction 0.707368 -0.647095 0.284426 
     length 2.60678 
     axis 0 0 0  XYZ
  end
  begin
     id 2 
     name lfemur
     direction 0.34202 -0.939693 0  
     length 6.63812  
     axis 0 0 20  XYZ
    dof rx ry rz
    limits (-160.0 20.0)
           (-70.0 70.0)
           (-60.0 70.0)
  end
  begin
     id 3 
     name ltibia
     direction 0.34202 -0.939693 0   
     length 7.51178   
     axis 0 0 20   XYZ
    dof rx
    limits (-10.0 170.0)
  end
  begin
     id 4 
     name lfoot
     direction 0.121251 -0.333133 0.935051   
     length 1.83716   
     axis -90 7.62852e-016 20   XYZ
    dof rx rz
    limits (-45.0 90.0)
           (-70.0 20.0)
  end
  begin
     id 5 
     name ltoes
     direction 1.53611e-011 -4.21962e-011 1   
     length 0.916133   
     axis -90 7.62852e-016 20   XYZ
    dof rx
    limits (-90.0 20.0)
  end
  begin
     id 6 
     name rhipjoint
     direction -0.692419 -0.660507 0.290321   
     length 2.55385  
     axis 0 0 0  XYZ 
  end
  begin
     id 7 
     name rfemur
     direction -0.34202 -0.939693 0   
     length 7.29079   
     axis 0 0 -20   XYZ
    dof rx ry rz
    limits (-160.0 20.0)
           (-70.0 70.0)
           (-70.0 60.0)
  end
  begin
     id 8 
     name rtibia
     direction -0.34202 -0.939693 0   
     length 7.47143   
     axis 0 0 -20   XYZ
    dof rx
    limits (-10.0 170.0)
 end
 begin
     id 9 
     name rfoot
     direction -0.119907 -0.329441 0.936532   
     length 1.79439  
     axis -90 -7.62852e-016 -20   XYZ
    dof rx rz
    limits (-45.0 90.0)
           (-20.0 70.0)
  end
  begin
     id 10 
     name rtoes
     direction -1.53571e-011 -4.21961e-011 1   
     length 0.896039   
     axis -90 -7.62852e-016 -20   XYZ
    dof rx
    limits (-90.0 20.0)
  end
  begin
     id 11 
     name lowerback
     direction 0.0367721 0.992912 -0.113016   
     length 1.73542   
     axis 0 0 0   XYZ
    dof rx ry rz
    limits (-20.0 45.0)
           (-30.0 30.0)
           (-30.0 30.0)
  end
  begin
     id 12 
     name upperback
     direction -0.000314626 0.990678 0.136227   
     length 1.7514   
     axis 0 0 0   XYZ
    dof rx ry rz
    limits (-20.0 45.0)
           (-30.0 30.0)
           (-30.0 30.0)
  end
  begin
     id 13 
     name thorax
     direction -0.0226159 0.981151 0.191917   
     length 1.71471   
     axis 0 0 0   XYZ
    dof rx ry rz
    limits (-20.0 45.0)
           (-30.0 30.0)
           (-30.0 30.0)
  end
  begin
     id 14 
     name lowerneck
     direction 0.0219333 0.998071 0.0580739   
     length 1.65882   
     axis 0 0 0   XYZ
    dof rx ry rz
    limits (-20.0 45.0)
           (-30.0 30.0)
           (-30.0 30.0)
  end
  begin
     id 15 
     name upperneck
     direction 0.0384529 0.980058 -0.194957   
     length 1.6612   
     axis 0 0 0   XYZ
    dof rx ry rz
    limits (-20.0 45.0)
           (-30.0 30.0)
           (-30.0 30.0)
  end
  begin
     id 16
     name head
     direction 0.00592123 0.997421 -0.0715234  
     length 1.68077  
     axis 0 0 0   XYZ
    dof rx ry rz
    limits (-20.0 45.0)
           (-30.0 30.0)
           (-30.0 30.0)
  end
  begin
     id 17 
     name lclavicle
     direction 0.904803 0.417826 0.0821728  
     length 3.42227  
     axis 0 0 0   XYZ
    dof ry rz
    limits (-20.0 10.0)
           (0.0 20.0)
  end
  begin
     id 18 
     name lhumerus
     direction 1 -4.48965e-011 -2.68786e-027   
     length 5.11878   
     axis -180 -30 -90   XYZ
    dof rx ry rz
    limits (-60.0 90.0)
           (-90.0 90.0)
           (-90.0 90.0)
  end
  begin
     id 19
     name lradius
     direction 1 -4.48965e-011 2.61168e-028   
     length 3.59971   
     axis -180 -30 -90   XYZ
    dof rx
    limits (-10.0 170.0)
  end
  begin
     id 20
     name lwrist
     direction 1 -4.48965e-011 1.58672e-027   
     length 1.79985   
     axis -1.65735e-015 90 90   XYZ
    dof ry
    limits (-180.0 0.0)
 end
  begin
     id 21 
     name lhand
     direction 1 -4.48942e-011 3.17344e-027   
     length 0.62877   
     axis -2.02492e-015 90 90   XYZ
    dof rx rz
    limits (-90.0 90.0)
           (-45.0 45.0)
  end
  begin
     id 22 
     name lfingers
     direction 1 -4.49011e-011 6.34687e-027   
     length 0.506931   
     axis -4.04985e-015 90 90   XYZ
    dof rx
    limits (0.0 90.0)
  end
  begin
     id 23
     name lthumb
     direction 0.707107 -6.34982e-011 0.707107   
     length 0.727854   
     axis -90 45 2.85299e-015   XYZ
    dof rx rz
    limits (-45.0 45.0)
           (-45.0 45.0)
  end
  begin
     id 24 
     name rclavicle
     direction -0.945647 0.32488 0.0143075   
     length 3.52737  
     axis 0 0 0   XYZ 
    dof ry rz
    limits (-10.0 20.0)
           (-20.0 0.0)
  end
  begin
     id 25 
     name rhumerus
     direction -1 -4.48962e-011 1.92182e-027  
     length 5.4902   
     axis -180 30 90   XYZ
    dof rx ry rz
    limits (-90.0 60.0)
           (-90.0 90.0)
           (-90.0 90.0)
  end
  begin
     id 26 
     name rradius
     direction -1 -4.48967e-011 -5.97193e-028   
     length 3.20659   
     axis -180 30 90   XYZ
    dof rx
    limits (-10.0 170.0)
  end
  begin
     id 27 
     name rwrist
     direction -1 -4.48964e-011 1.58672e-027   
     length 1.6033   
     axis -1.65735e-015 -90 -90   XYZ
    dof ry
    limits (-180.0 0.0)
  end
  begin
     id 28
     name rhand
     direction -1 -4.49006e-011 3.17344e-027   
     length 0.691885   
     axis -2.02492e-015 -90 -90   XYZ
    dof rx rz
    limits (-90.0 90.0)
           (-45.0 45.0)
  end
  begin
     id 29
     name rfingers
     direction -1 -4.48908e-011 6.34687e-027   
     length 0.557815   
     axis -4.04985e-015 -90 -90   XYZ
    dof rx
    limits (0.0 90.0)
  end
  begin
     id 30
     name rthumb
     direction -0.707107 -6.34999e-011 0.707107   
     length 0.800915   
     axis -90 -45 -2.85299e-015   XYZ
    dof rx rz
    limits (-45.0 45.0)
           (-45.0 45.0)
  end
:hierarchy
  begin
    root lhipjoint rhipjoint lowerback
    lhipjoint lfemur
    lfemur ltibia
    ltibia lfoot
    lfoot ltoes
    rhipjoint rfemur
    rfemur rtibia
    rtibia rfoot
    rfoot rtoes
    lowerback upperback
    upperback thorax
    thorax lowerneck lclavicle rclavicle
    lowerneck upperneck
    upperneck head
    lclavicle lhumerus
    lhumerus lradius
    lradius lwrist
    lwrist lhand lthumb
    lhand lfingers
    rclavicle rhumerus
    rhumerus rradius
    rradius rwrist
    rwrist rhand rthumb
    rhand rfingers
  end

#!OML:ASF I:\Actors\actors\Patient Classification 1\Patient 1\Session 1\Subject1.ASF
:FULLY-SPECIFIED
:DEGREES
114
root -0.0300793 17.4222 8.40983 9.62924 -1.01671 -9.51667
lowerback -0.899314 0.651902 5.42506
upperback -8.87909 1.31693 3.05801
thorax -8.82606 0.377091 0.122386
lowerneck -5.51255 -10.5321 -6.69445
upperneck 18.0698 -14.8988 6.11834
head 7.41735 -7.15769 1.7561
rclavicle 1.13307e-014 3.57812e-014
rhumerus -45.1901 -16.7557 -76.5427
rradius 33.0068
rwrist 19.9049
rhand 0.562719 -38.3904
rfingers 7.12502
rthumb 26.1292 -66.6126
lclavicle 1.13307e-014 3.57812e-014
lhumerus -47.2052 0.787383 93.2508
lradius 35.7215
lwrist -8.76466
lhand -9.68763 -2.96236
lfingers 7.12502
lthumb 16.2844 26.3738
rfemur -5.32864 24.2628 23.7146
rtibia 3.84496
rfoot -12.7432 -24.5536
rtoes -0.0420151
lfemur 4.43811 -44.0697 -9.50649
ltibia -4.25044
lfoot -28.6179 54.171
ltoes 17.4767
115
root -0.03039 17.4226 8.41312 9.6557 -1.03395 -9.46182
lowerback -0.924549 0.704624 5.42175
upperback -8.85226 1.38195 3.02532
thorax -8.77779 0.409214 0.0851428
lowerneck -5.82963 -10.1523 -6.51868
upperneck 17.9583 -14.4236 6.42285
head 7.41269 -6.88707 1.86167
rclavicle -6.13748e-015 3.68746e-014
rhumerus -45.3903 -13.0915 -79.2015
rradius 35.9156
rwrist 14.7176
rhand 0.55491 -39.8087
rfingers 7.12502
rthumb 26.1218 -68.032
lclavicle -6.13748e-015 3.68746e-014
lhumerus -48.4523 -1.92689 95.1018
lradius 39.18
lwrist -4.57415
lhand -10.1657 -1.71549
lfingers 7.12502
lthumb 15.8241 27.6578
rfemur -5.34251 24.3057 23.6405
rtibia 3.83019
rfoot -12.7702 -24.5856
rtoes 0.03886
lfemur 4.44751 -44.1659 -9.58605
ltibia -4.24339
lfoot -28.7592 54.2381
ltoes 17.5685
116
root -0.0305624 17.4226 8.41739 9.68285 -1.0014 -9.4791
lowerback -0.955744 0.729699 5.51601
upperback -8.82801 1.41555 3.02485
thorax -8.7304 0.419934 0.0302562
lowerneck -6.08651 -9.7825 -6.37069
upperneck 17.7914 -13.9441 6.65669
head 7.37543 -6.62469 1.95437
rclavicle 1.23122e-014 -2.05742e-014
rhumerus -45.9269 -9.35944 -81.7922
rradius 39.3265
rwrist 10.5509
rhand 0.37982 -41.279
rfingers 7.12502
rthumb 25.9541 -69.527
lclavicle 1.23122e-014 -2.05742e-014
lhumerus -49.8154 -4.41098 96.8974
lradius 42.8183
lwrist -0.420982
lhand -12.1021 -1.86546
lfingers 7.12502
lthumb 13.9586 27.646
rfemur -5.33558 24.3121 23.6683
rtibia 3.79993
rfoot -12.7363 -24.6452
rtoes -0.27011
lfemur 4.42381 -44.1818 -9.54571
ltibia -4.26634
lfoot -28.5168 54.329
ltoes 17.2058
117
root -0.0305269 17.4223 8.41988 9.70984 -0.937912 -9.50445
lowerback -0.99844 0.742244 5.62385
upperback -8.79206 1.43148 3.03058
thorax -8.664 0.421812 -0.0244142
lowerneck -6.39962 -9.44134 -6.1202
upperneck 17.6687 -13.4837 6.70794
head 7.34342 -6.37724 1.96832
rclavicle 5.91384e-015 2.6339e-014
rhumerus -46.7234 -5.76686 -84.2233
rradius 43.1688
rwrist 7.29551
rhand 0.287161 -42.6668
rfingers 7.12502
rthumb 25.8654 -70.9277
lclavicle 5.91384e-015 2.6339e-014
lhumerus -51.1696 -6.64861 98.5282
lradius 46.5733
lwrist 3.32013
lhand -14.4905 -3.07764
lfingers 7.12502
lthumb 11.6561 26.5781
rfemur -5.32892 24.331 23.7008
rtibia 3.76829
rfoot -12.7395 -24.7232
rtoes -0.232139
lfemur 4.36328 -44.2003 -9.46757
ltibia -4.27727
lfoot -28.4583 54.3561
ltoes 17.1216
118
root -0.030379 17.422 8.42058 9.72726 -0.893954 -9.5016
lowerback -1.01527 0.773236 5.7081
upperback -8.77293 1.47276 3.01179
thorax -8.62984 0.436078 -0.093602
lowerneck -6.68238 -9.14083 -5.83983
upperneck 17.5969 -13.073 6.66366
head 7.31855 -6.15948 1.94281
rclavicle 1.18401e-014 -4.63168e-014
rhumerus -47.733 -2.62426 -86.3321
rradius 47.1056
rwrist 4.56558
rhand -1.24137 -42.4663
rfingers 7.12502
rthumb 24.4008 -70.9326
lclavicle 1.18401e-014 -4.63168e-014
lhumerus -52.574 -8.84261 100.03
lradius 50.5111
lwrist 6.89097
lhand -16.1071 -3.63707
lfingers 7.12502
lthumb 10.0969 26.1007
rfemur -5.33746 24.2864 23.6885
rtibia 3.74813
rfoot -12.742 -24.7106
rtoes -0.099081
lfemur 4.30433 -44.2082 -9.43439
ltibia -4.2541
lfoot -28.498 54.328
ltoes 17.1726
119
root -0.030208 17.4217 8.4216 9.72786 -0.866004 -9.49691
lowerback -1.01231 0.793971 5.79029
upperback -8.78018 1.50371 2.99758
thorax -8.63722 0.444379 -0.156017
lowerneck -6.96857 -8.84746 -5.58629
upperneck 17.6736 -12.6707 6.55432
head 7.34221 -5.94999 1.89721
rclavicle -2.35684e-014 1.0138e-014
rhumerus -48.8968 0.248109 -88.2487
rradius 51.0665
rwrist 1.90228
rhand -1.82987 -42.9243
rfingers 7.12502
rthumb 23.8366 -71.4654
lclavicle -2.35684e-014 1.0138e-014
lhumerus -54.0379 -10.8818 101.44
lradius 54.4597
lwrist 10.1962
lhand -17.5705 -3.71397
lfingers 7.12502
lthumb 8.68485 26.0874
rfemur -5.32165 24.2154 23.6853
rtibia 3.71954
rfoot -12.7096 -24.6729
rtoes -0.201995
lfemur 4.25826 -44.1315 -9.41372
ltibia -4.22357
lfoot -28.3313 54.2569
ltoes 17.0151
